# xmcd
# 
# Track frame offsets:
#     182
#     15387
#     29125
#     55890
# 
# Disc length: 1270
# 
# Revision: 2
# Processed by: cddbd v1.5.2PL0 Copyright (c) Steve Scherf et al.
# Submitted via: BonkEnc v1.0.8
# 
DISCID=2c04f404
DTITLE=North And South - I'm A Man Not A Boy
DYEAR=1997
DGENRE=Pop
TTITLE0=I'm A Man Not A Boy (Tect One)
TTITLE1=I'm A No Sweat (Tect Two)
TTITLE2=I'm A Man Not A Boy (Southport Rally - Tony De Vit - Snt Mix) (Tect One)
TTITLE3=I'm A Man Not A Boy (North Shields Anthem - Tony De Vit Club 12")  (Tect One)
EXTD=
EXTT0=
EXTT1=
EXTT2=
EXTT3=
PLAYORDER=
